<svg width="25" height="25" viewBox="0 0 25 25" fill="none" xmlns="http://www.w3.org/2000/svg">
<path d="M3.6543 5.01299C3.6543 4.34216 4.19967 3.79834 4.87241 3.79834H14.6173C15.2901 3.79834 15.8355 4.34216 15.8355 5.01299V7.44228C15.8355 8.1131 15.2901 8.65692 14.6173 8.65692H4.87241C4.19967 8.65692 3.6543 8.1131 3.6543 7.44228V5.01299ZM5.48147 6.83495H14.0083V5.62031H5.48147V6.83495Z" fill="white"/>
<path d="M0 3.19091C0 1.51384 1.36342 0.154297 3.04529 0.154297H17.0536C18.7355 0.154297 20.0989 1.51384 20.0989 3.19091V20.4996C20.0989 21.0027 19.6899 21.4106 19.1853 21.4106H1.82717C1.82717 22.0814 2.37255 22.6252 3.04529 22.6252H19.1853C19.6899 22.6252 20.0989 23.0331 20.0989 23.5362C20.0989 24.0393 19.6899 24.4472 19.1853 24.4472H3.04529C1.36342 24.4472 0 23.0876 0 21.4106V3.19091ZM1.82717 19.5886H18.2717V3.19091C18.2717 2.52009 17.7264 1.97626 17.0536 1.97626H3.04529C2.37255 1.97626 1.82717 2.52009 1.82717 3.19091V19.5886Z" fill="white"/>
</svg>
