<svg width="20" height="26" viewBox="0 0 20 26" fill="none" xmlns="http://www.w3.org/2000/svg">
<path d="M3.59375 13.366C3.59375 12.8658 3.996 12.4603 4.49219 12.4603C4.98838 12.4603 5.39062 12.8658 5.39062 13.366C5.39062 13.8663 4.98838 14.2718 4.49219 14.2718C3.996 14.2718 3.59375 13.8663 3.59375 13.366ZM4.49219 16.0834C3.996 16.0834 3.59375 16.4889 3.59375 16.9891C3.59375 17.4894 3.996 17.8949 4.49219 17.8949C4.98838 17.8949 5.39062 17.4894 5.39062 16.9891C5.39062 16.4889 4.98838 16.0834 4.49219 16.0834ZM3.59375 20.6123C3.59375 20.112 3.996 19.7065 4.49219 19.7065C4.98838 19.7065 5.39062 20.112 5.39062 20.6123C5.39062 21.1125 4.98838 21.518 4.49219 21.518C3.996 21.518 3.59375 21.1125 3.59375 20.6123ZM8.08594 12.4603C7.58976 12.4603 7.1875 12.8658 7.1875 13.366C7.1875 13.8663 7.58976 14.2718 8.08594 14.2718H14.6745C15.1707 14.2718 15.5729 13.8663 15.5729 13.366C15.5729 12.8658 15.1707 12.4603 14.6745 12.4603H8.08594ZM7.1875 16.9891C7.1875 16.4889 7.58976 16.0834 8.08594 16.0834H14.6745C15.1707 16.0834 15.5729 16.4889 15.5729 16.9891C15.5729 17.4894 15.1707 17.8949 14.6745 17.8949H8.08594C7.58976 17.8949 7.1875 17.4894 7.1875 16.9891ZM8.08594 19.7065C7.58976 19.7065 7.1875 20.112 7.1875 20.6123C7.1875 21.1125 7.58976 21.518 8.08594 21.518H14.6745C15.1707 21.518 15.5729 21.1125 15.5729 20.6123C15.5729 20.112 15.1707 19.7065 14.6745 19.7065H8.08594ZM18.4647 8.73328L11.482 1.69478C11.4641 1.67672 11.4438 1.66106 11.4237 1.64549C11.4087 1.63399 11.394 1.62255 11.3802 1.61024C11.2952 1.53294 11.2113 1.45686 11.1179 1.39285C11.0876 1.37225 11.0545 1.35599 11.0214 1.33979C11.0023 1.33036 10.9831 1.32095 10.9645 1.31073C10.9445 1.29936 10.9246 1.28774 10.9046 1.2761C10.8397 1.23823 10.7745 1.2002 10.7058 1.17063C10.4698 1.0716 10.2158 1.02208 9.95828 1.00397C9.93468 1.00245 9.91132 0.999234 9.88784 0.99601C9.85538 0.991541 9.8228 0.987061 9.78937 0.987061H2.39583C1.07333 0.987061 0 2.06916 0 3.40247V22.7257C0 24.059 1.07333 25.1411 2.39583 25.1411H16.7708C18.0933 25.1411 19.1667 24.059 19.1667 22.7257V10.441C19.1667 9.80089 18.9139 9.18616 18.4647 8.73328ZM17.3698 22.7257C17.3698 23.0579 17.1015 23.3296 16.7708 23.3296H2.39583C2.06521 23.3296 1.79687 23.0579 1.79687 22.7257V3.40247C1.79687 3.07035 2.06521 2.79862 2.39583 2.79862H9.58333V8.23329C9.58333 9.56659 10.6567 10.6487 11.9792 10.6487H17.3698V22.7257ZM11.3802 4.15245L16.0257 8.83714H11.9792C11.6485 8.83714 11.3802 8.56541 11.3802 8.23329V4.15245Z" fill="white"/>
</svg>
