<svg width="21" height="25" viewBox="0 0 21 25" fill="none" xmlns="http://www.w3.org/2000/svg">
<path d="M3.6543 5.01274C3.6543 4.34192 4.19967 3.7981 4.87241 3.7981H14.6173C15.2901 3.7981 15.8355 4.34192 15.8355 5.01274V7.44203C15.8355 8.11286 15.2901 8.65668 14.6173 8.65668H4.87241C4.19967 8.65668 3.6543 8.11286 3.6543 7.44203V5.01274ZM5.48147 6.83471H14.0083V5.62006H5.48147V6.83471Z" fill="white"/>
<path d="M0 3.19067C0 1.51359 1.36342 0.154053 3.04529 0.154053H17.0536C18.7355 0.154053 20.0989 1.51359 20.0989 3.19067V20.4994C20.0989 21.0025 19.6899 21.4103 19.1853 21.4103H1.82717C1.82717 22.0812 2.37255 22.625 3.04529 22.625H19.1853C19.6899 22.625 20.0989 23.0329 20.0989 23.536C20.0989 24.0391 19.6899 24.447 19.1853 24.447H3.04529C1.36342 24.447 0 23.0874 0 21.4103V3.19067ZM1.82717 19.5884H18.2717V3.19067C18.2717 2.51984 17.7264 1.97602 17.0536 1.97602H3.04529C2.37255 1.97602 1.82717 2.51984 1.82717 3.19067V19.5884Z" fill="white"/>
</svg>
