<svg width="24" height="24" viewBox="0 0 24 24" fill="none" xmlns="http://www.w3.org/2000/svg">
<path d="M2.58857 0.37793C1.15894 0.37793 0 1.5196 0 2.92792V18.2279C0 19.6362 1.15894 20.7779 2.58857 20.7779H9.39377L9.80314 19.165C9.81051 19.1359 9.81822 19.1068 9.82616 19.0778H2.58857C2.11203 19.0778 1.72572 18.6973 1.72572 18.2279V2.92792C1.72572 2.45849 2.11203 2.07793 2.58857 2.07793H18.12C18.5965 2.07793 18.9828 2.45849 18.9828 2.92792V9.70799C19.5338 9.49207 20.1259 9.40888 20.7085 9.45841V2.92792C20.7085 1.5196 19.5496 0.37793 18.12 0.37793H2.58857ZM14.2141 13.9778H9.49145C9.01477 13.9778 8.62852 14.3585 8.62852 14.8279C8.62852 15.2973 9.01477 15.6779 9.49145 15.6779H12.4885L14.2141 13.9778ZM6.61523 6.32792C6.61523 6.95383 6.10014 7.46125 5.46476 7.46125C4.82937 7.46125 4.31428 6.95383 4.31428 6.32792C4.31428 5.702 4.82937 5.19459 5.46476 5.19459C6.10014 5.19459 6.61523 5.702 6.61523 6.32792ZM9.49145 5.47791C9.01488 5.47791 8.62852 5.85847 8.62852 6.32792C8.62852 6.79735 9.01488 7.17791 9.49145 7.17791H15.8191C16.2956 7.17791 16.6819 6.79735 16.6819 6.32792C16.6819 5.85847 16.2956 5.47791 15.8191 5.47791H9.49145ZM9.49145 9.72794C9.01477 9.72794 8.62852 10.1084 8.62852 10.5779C8.62852 11.0474 9.01477 11.4279 9.49145 11.4279H15.8188C16.2955 11.4279 16.6816 11.0474 16.6816 10.5779C16.6816 10.1084 16.2955 9.72794 15.8188 9.72794H9.49145ZM5.46476 11.7112C6.10014 11.7112 6.61523 11.2039 6.61523 10.5779C6.61523 9.95202 6.10014 9.44458 5.46476 9.44458C4.82937 9.44458 4.31428 9.95202 4.31428 10.5779C4.31428 11.2039 4.82937 11.7112 5.46476 11.7112ZM6.61523 14.8279C6.61523 15.4538 6.10014 15.9612 5.46476 15.9612C4.82937 15.9612 4.31428 15.4538 4.31428 14.8279C4.31428 14.2019 4.82937 13.6946 5.46476 13.6946C6.10014 13.6946 6.61523 14.2019 6.61523 14.8279ZM18.5224 11.3366L11.7319 18.026C11.3359 18.416 11.0551 18.9048 10.9193 19.4398L10.3928 21.5146C10.1637 22.4169 10.9934 23.2342 11.9094 23.0087L14.0155 22.4899C14.5587 22.3562 15.0548 22.0795 15.4508 21.6895L22.2413 15.0001C23.2682 13.9884 23.2682 12.3482 22.2413 11.3366C21.2145 10.325 19.5495 10.325 18.5224 11.3366Z" fill="white"/>
</svg>
