<svg width="24" height="25" viewBox="0 0 24 25" fill="none" xmlns="http://www.w3.org/2000/svg">
<path d="M21.8889 16.5173H1.77497V22.3794H21.8889V16.5173ZM23.6006 15.3119L23.6261 15.3844L23.6535 15.5026L23.664 15.6182V23.2587C23.664 23.7038 23.3301 24.0717 22.897 24.13L22.7765 24.138H0.887484C0.438181 24.138 0.066869 23.8072 0.0081057 23.378L0 23.2587V15.6387L0.00217743 15.5767L0.01504 15.4764C0.0270388 15.4133 0.045451 15.3533 0.0697444 15.2965L3.33486 8.24009C3.46139 7.96665 3.7185 7.77909 4.01324 7.73647L4.14159 7.72724L7.14699 7.72634L6.21344 9.33283L6.13289 9.48496L4.71077 9.48516L2.26959 14.7584H21.3825L18.9836 9.66317L20.0041 7.90771C20.0829 7.96734 20.1519 8.04024 20.2075 8.1241L20.2698 8.23482L23.6006 15.3119ZM13.4486 0.754957L13.5567 0.807681L19.6959 4.32859C20.0842 4.55131 20.2385 5.02203 20.0732 5.42309L20.0201 5.53049L16.6989 11.2426L18.0455 11.2433C18.5356 11.2433 18.933 11.637 18.933 12.1226C18.933 12.5678 18.5991 12.9357 18.166 12.9939L18.0455 13.0019L15.6765 13.0012L15.6755 13.0047H10.8499L10.8462 13.0012L5.62073 13.0019C5.13059 13.0019 4.73325 12.6082 4.73325 12.1226C4.73325 11.6774 5.06712 11.3095 5.50031 11.2514L5.62073 11.2433L7.77791 11.2426L7.56308 11.1198C7.17474 10.8971 7.02042 10.4264 7.18578 10.0253L7.23888 9.9179L12.3468 1.12979C12.5709 0.74403 13.0448 0.590725 13.4486 0.754957ZM13.4376 2.77109L9.21541 10.0352L11.3196 11.2426H14.653L18.0431 5.41241L13.4376 2.77109Z" fill="white"/>
</svg>
