<svg width="25" height="25" viewBox="0 0 25 25" fill="none" xmlns="http://www.w3.org/2000/svg">
<path d="M3.59375 13.3663C3.59375 12.866 3.996 12.4605 4.49219 12.4605C4.98838 12.4605 5.39062 12.866 5.39062 13.3663C5.39062 13.8665 4.98838 14.2721 4.49219 14.2721C3.996 14.2721 3.59375 13.8665 3.59375 13.3663ZM4.49219 16.0836C3.996 16.0836 3.59375 16.4892 3.59375 16.9894C3.59375 17.4896 3.996 17.8952 4.49219 17.8952C4.98838 17.8952 5.39062 17.4896 5.39062 16.9894C5.39062 16.4892 4.98838 16.0836 4.49219 16.0836ZM3.59375 20.6125C3.59375 20.1123 3.996 19.7067 4.49219 19.7067C4.98838 19.7067 5.39062 20.1123 5.39062 20.6125C5.39062 21.1127 4.98838 21.5183 4.49219 21.5183C3.996 21.5183 3.59375 21.1127 3.59375 20.6125ZM8.08594 12.4605C7.58976 12.4605 7.1875 12.866 7.1875 13.3663C7.1875 13.8665 7.58976 14.2721 8.08594 14.2721H14.6745C15.1707 14.2721 15.5729 13.8665 15.5729 13.3663C15.5729 12.866 15.1707 12.4605 14.6745 12.4605H8.08594ZM7.1875 16.9894C7.1875 16.4892 7.58976 16.0836 8.08594 16.0836H14.6745C15.1707 16.0836 15.5729 16.4892 15.5729 16.9894C15.5729 17.4896 15.1707 17.8952 14.6745 17.8952H8.08594C7.58976 17.8952 7.1875 17.4896 7.1875 16.9894ZM8.08594 19.7067C7.58976 19.7067 7.1875 20.1123 7.1875 20.6125C7.1875 21.1127 7.58976 21.5183 8.08594 21.5183H14.6745C15.1707 21.5183 15.5729 21.1127 15.5729 20.6125C15.5729 20.1123 15.1707 19.7067 14.6745 19.7067H8.08594ZM18.4647 8.73352L11.482 1.69502C11.4641 1.67696 11.4438 1.6613 11.4237 1.64573C11.4087 1.63424 11.394 1.6228 11.3802 1.61048C11.2952 1.53319 11.2113 1.4571 11.1179 1.39309C11.0876 1.37249 11.0545 1.35623 11.0214 1.34004C11.0023 1.33061 10.9831 1.3212 10.9645 1.31097C10.9445 1.2996 10.9246 1.28799 10.9046 1.27634C10.8397 1.23847 10.7745 1.20044 10.7058 1.17088C10.4698 1.07184 10.2158 1.02233 9.95828 1.00421C9.93468 1.00269 9.91132 0.999478 9.88784 0.996254C9.85538 0.991785 9.8228 0.987305 9.78937 0.987305H2.39583C1.07333 0.987305 0 2.06941 0 3.40271V22.726C0 24.0593 1.07333 25.1414 2.39583 25.1414H16.7708C18.0933 25.1414 19.1667 24.0593 19.1667 22.726V10.4412C19.1667 9.80113 18.9139 9.18641 18.4647 8.73352ZM17.3698 22.726C17.3698 23.0581 17.1015 23.3298 16.7708 23.3298H2.39583C2.06521 23.3298 1.79687 23.0581 1.79687 22.726V3.40271C1.79687 3.07059 2.06521 2.79886 2.39583 2.79886H9.58333V8.23353C9.58333 9.56684 10.6567 10.6489 11.9792 10.6489H17.3698V22.726ZM11.3802 4.1527L16.0257 8.83738H11.9792C11.6485 8.83738 11.3802 8.56565 11.3802 8.23353V4.1527Z" fill="white"/>
</svg>
