<svg width="25" height="25" viewBox="0 0 25 25" fill="none" xmlns="http://www.w3.org/2000/svg">
<path d="M26.2499 13.1251C26.0676 13.1239 25.8901 13.0658 25.7424 12.9589L13.9999 4.57636L2.25741 12.9589C2.06903 13.0704 1.84566 13.1073 1.6314 13.0623C1.41715 13.0172 1.22757 12.8934 1.1001 12.7154C0.972635 12.5374 0.916537 12.3181 0.942884 12.1007C0.969231 11.8833 1.07611 11.6838 1.24241 11.5414L13.4924 2.79136C13.6406 2.68585 13.818 2.62915 13.9999 2.62915C14.1818 2.62915 14.3592 2.68585 14.5074 2.79136L26.7574 11.5414C26.9068 11.6495 27.0182 11.8021 27.0757 11.9773C27.1332 12.1526 27.1339 12.3415 27.0776 12.5171C27.0213 12.6928 26.911 12.8461 26.7623 12.9553C26.6137 13.0645 26.4343 13.1239 26.2499 13.1251Z" fill="white"/>
<path d="M4.375 7.875C4.14294 7.875 3.92038 7.78281 3.75628 7.61872C3.59219 7.45462 3.5 7.23206 3.5 7V3.5C3.5 3.26794 3.59219 3.04538 3.75628 2.88128C3.92038 2.71719 4.14294 2.625 4.375 2.625H7.875C8.10706 2.625 8.32962 2.71719 8.49372 2.88128C8.65781 3.04538 8.75 3.26794 8.75 3.5C8.75 3.73206 8.65781 3.95462 8.49372 4.11872C8.32962 4.28281 8.10706 4.375 7.875 4.375H5.25V7C5.25 7.23206 5.15781 7.45462 4.99372 7.61872C4.82962 7.78281 4.60706 7.875 4.375 7.875Z" fill="white"/>
<path d="M21.875 25.375H17.5C17.2679 25.375 17.0454 25.2828 16.8813 25.1187C16.7172 24.9546 16.625 24.7321 16.625 24.5V18.375H11.375V24.5C11.375 24.7321 11.2828 24.9546 11.1187 25.1187C10.9546 25.2828 10.7321 25.375 10.5 25.375H6.125C5.42881 25.375 4.76113 25.0984 4.26884 24.6062C3.77656 24.1139 3.5 23.4462 3.5 22.75V14C3.5 13.7679 3.59219 13.5454 3.75628 13.3813C3.92038 13.2172 4.14294 13.125 4.375 13.125C4.60706 13.125 4.82962 13.2172 4.99372 13.3813C5.15781 13.5454 5.25 13.7679 5.25 14V22.75C5.25 22.9821 5.34219 23.2046 5.50628 23.3687C5.67038 23.5328 5.89294 23.625 6.125 23.625H9.625V17.5C9.625 17.2679 9.71719 17.0454 9.88128 16.8813C10.0454 16.7172 10.2679 16.625 10.5 16.625H17.5C17.7321 16.625 17.9546 16.7172 18.1187 16.8813C18.2828 17.0454 18.375 17.2679 18.375 17.5V23.625H21.875C22.1071 23.625 22.3296 23.5328 22.4937 23.3687C22.6578 23.2046 22.75 22.9821 22.75 22.75V14C22.75 13.7679 22.8422 13.5454 23.0063 13.3813C23.1704 13.2172 23.3929 13.125 23.625 13.125C23.8571 13.125 24.0796 13.2172 24.2437 13.3813C24.4078 13.5454 24.5 13.7679 24.5 14V22.75C24.5 23.4462 24.2234 24.1139 23.7312 24.6062C23.2389 25.0984 22.5712 25.375 21.875 25.375V25.375Z" fill="white"/>
</svg>
