<svg width="25" height="25" viewBox="0 0 25 25" fill="none" xmlns="http://www.w3.org/2000/svg">
<path d="M23.831 23.0001H4.62393C2.15826 23.0001 0.143342 21.1057 0.00731301 18.7188L0 18.4613V3.79751C0 2.13442 1.31627 0.773086 2.98201 0.662521L3.20118 0.655273H20.9855C22.6799 0.655273 24.0666 1.94731 24.1793 3.58238L24.1867 3.79751V4.84493H25.2538C26.9481 4.84493 28.3349 6.13696 28.4475 7.77203L28.4549 7.98717V18.4613C28.4549 20.8815 26.525 22.8593 24.0934 22.993L23.831 23.0001ZM4.62393 20.9053H23.831C25.1374 20.9053 26.2087 19.9178 26.3126 18.6617L26.3208 18.4613V7.98717C26.3208 7.4569 25.9193 7.01868 25.3986 6.94932L25.2538 6.93976H24.1867V17.763C24.1867 18.2933 23.7852 18.7315 23.2645 18.8009L23.1196 18.8104C22.5794 18.8104 22.133 18.4163 22.0622 17.9052L22.0526 17.763V3.79751C22.0526 3.26724 21.6511 2.82902 21.1304 2.75967L20.9855 2.7501H3.20118C2.66096 2.7501 2.21452 3.14414 2.14387 3.65539L2.13412 3.79751V18.4613C2.13412 19.7436 3.14016 20.7952 4.41972 20.8972L4.62393 20.9053ZM14.5775 15.3191H18.8545C19.444 15.3191 19.9216 15.788 19.9216 16.3665C19.9216 16.8967 19.5202 17.335 18.9994 17.4044L18.8545 17.4139H14.5775C13.9882 17.4139 13.5104 16.9449 13.5104 16.3665C13.5104 15.8362 13.9119 15.398 14.4326 15.3286L14.5775 15.3191ZM10.3054 10.4374C10.8947 10.4374 11.3724 10.9064 11.3724 11.4848V16.3665C11.3724 16.9449 10.8947 17.4139 10.3054 17.4139H5.33211C4.7428 17.4139 4.26505 16.9449 4.26505 16.3665V11.4848C4.26505 10.9064 4.7428 10.4374 5.33211 10.4374H10.3054ZM9.23829 12.5322H6.39917V15.3191H9.23829V12.5322ZM14.5775 10.4374H18.8545C19.444 10.4374 19.9216 10.9064 19.9216 11.4848C19.9216 12.0151 19.5202 12.4533 18.9994 12.5226L18.8545 12.5322H14.5775C13.9882 12.5322 13.5104 12.0633 13.5104 11.4848C13.5104 10.9546 13.9119 10.5163 14.4326 10.4469L14.5775 10.4374ZM5.33211 5.54665H18.8545C19.444 5.54665 19.9216 6.0156 19.9216 6.59407C19.9216 7.12434 19.5202 7.56256 18.9994 7.63193L18.8545 7.64148H5.33211C4.7428 7.64148 4.26505 7.17255 4.26505 6.59407C4.26505 6.06381 4.66648 5.62557 5.18732 5.55622L5.33211 5.54665Z" fill="white"/>
</svg>
