<svg width="25" height="25" viewBox="0 0 25 25" fill="none" xmlns="http://www.w3.org/2000/svg">
<path d="M0 3.99305C0 1.822 1.77635 0.0620117 3.96758 0.0620117H18.2509C20.4421 0.0620117 22.2185 1.822 22.2185 3.99305V4.77925H22.2231V6.35167H22.2185V18.1448C22.2185 20.3158 20.4421 22.0758 18.2509 22.0758H3.96758C1.77635 22.0758 0 20.3158 0 18.1448V3.99305ZM20.6314 4.77925V3.99305C20.6314 2.69041 19.5656 1.63443 18.2509 1.63443H3.96758C2.65283 1.63443 1.58703 2.69041 1.58703 3.99305V4.77925H20.6314ZM1.58703 6.35167V18.1448C1.58703 19.4474 2.65283 20.5034 3.96758 20.5034H18.2509C19.5656 20.5034 20.6314 19.4474 20.6314 18.1448V6.35167H1.58703Z" fill="white"/>
<path d="M3.9732 7.92432C3.53496 7.92432 3.17969 8.27632 3.17969 8.71052V15.0002C3.17969 15.4343 3.53496 15.7864 3.9732 15.7864H10.3213C10.7596 15.7864 11.1148 15.4343 11.1148 15.0002V8.71052C11.1148 8.27632 10.7596 7.92432 10.3213 7.92432H3.9732ZM9.52781 9.49673V14.214H4.76672V9.49673H9.52781Z" fill="white"/>
</svg>
