<svg width="25" height="25" viewBox="0 0 25 25" fill="none" xmlns="http://www.w3.org/2000/svg">
<path d="M21.8889 16.517H1.77497V22.3791H21.8889V16.517ZM23.6006 15.3117L23.6261 15.3841L23.6535 15.5023L23.664 15.6179V23.2584C23.664 23.7036 23.3301 24.0715 22.897 24.1298L22.7765 24.1377H0.887484C0.438181 24.1377 0.066869 23.807 0.0081057 23.3778L0 23.2584V15.6384L0.00217743 15.5764L0.01504 15.4762C0.0270388 15.4131 0.045451 15.3531 0.0697444 15.2962L3.33486 8.23985C3.46139 7.96641 3.7185 7.77884 4.01324 7.73623L4.14159 7.727L7.14699 7.7261L6.21344 9.33258L6.13289 9.48472L4.71077 9.48492L2.26959 14.7582H21.3825L18.9836 9.66292L20.0041 7.90747C20.0829 7.9671 20.1519 8.04 20.2075 8.12386L20.2698 8.23457L23.6006 15.3117ZM13.4486 0.754713L13.5567 0.807436L19.6959 4.32835C20.0842 4.55107 20.2385 5.02178 20.0732 5.42284L20.0201 5.53025L16.6989 11.2424L18.0455 11.2431C18.5356 11.2431 18.933 11.6368 18.933 12.1224C18.933 12.5675 18.5991 12.9354 18.166 12.9937L18.0455 13.0017L15.6765 13.001L15.6755 13.0045H10.8499L10.8462 13.001L5.62073 13.0017C5.13059 13.0017 4.73325 12.608 4.73325 12.1224C4.73325 11.6772 5.06712 11.3093 5.50031 11.2511L5.62073 11.2431L7.77791 11.2424L7.56308 11.1196C7.17474 10.8968 7.02042 10.4261 7.18578 10.0251L7.23888 9.91765L12.3468 1.12955C12.5709 0.743786 13.0448 0.590481 13.4486 0.754713ZM13.4376 2.77084L9.21541 10.035L11.3196 11.2424H14.653L18.0431 5.41216L13.4376 2.77084Z" fill="white"/>
</svg>
